<?xml version="1.0" encoding="utf-8"?>
<!-- Generator: Adobe Illustrator 24.0.3, SVG Export Plug-In . SVG Version: 6.00 Build 0)  -->
<svg version="1.1" id="Layer_1" xmlns="http://www.w3.org/2000/svg" xmlns:xlink="http://www.w3.org/1999/xlink" x="0px" y="0px"
	 viewBox="0 0 735.41 182.55" style="enable-background:new 0 0 735.41 182.55;" xml:space="preserve">
<style type="text/css">
	.st0{fill:#FFFFFF;}
	.st1{font-family:'Helvetica';}
	.st2{font-size:9px;}
	.st3{clip-path:url(#SVGID_2_);fill:#FFFFFF;}
	.st4{clip-path:url(#SVGID_2_);fill:none;stroke:#EBEBEB;stroke-width:1.07;stroke-linejoin:round;stroke-miterlimit:10;}
	
		.st5{opacity:0.298;clip-path:url(#SVGID_2_);fill:none;stroke:#BEBEBE;stroke-width:1.07;stroke-linejoin:round;stroke-miterlimit:10;}
	.st6{clip-path:url(#SVGID_2_);fill:none;stroke:#000000;stroke-width:1.07;stroke-linejoin:round;stroke-miterlimit:10;}
	
		.st7{clip-path:url(#SVGID_2_);fill:none;stroke:#FF0000;stroke-width:1.07;stroke-linejoin:round;stroke-miterlimit:10;stroke-dasharray:4.27,4.27;}
	.st8{clip-path:url(#SVGID_2_);fill:none;stroke:#0000FF;stroke-width:1.07;stroke-linejoin:round;stroke-miterlimit:10;}
	.st9{clip-path:url(#SVGID_2_);fill:none;stroke:#FF0000;stroke-width:1.07;stroke-linejoin:round;stroke-miterlimit:10;}
	.st10{clip-path:url(#SVGID_2_);fill:none;stroke:#00FF00;stroke-width:1.07;stroke-linejoin:round;stroke-miterlimit:10;}
	
		.st11{clip-path:url(#SVGID_2_);fill:none;stroke:#333333;stroke-width:1.07;stroke-linecap:round;stroke-linejoin:round;stroke-miterlimit:10;}
	.st12{fill:none;stroke:#333333;stroke-width:1.07;stroke-linejoin:round;stroke-miterlimit:10;}
	.st13{fill:#4D4D4D;}
	.st14{font-size:11px;}
	.st15{letter-spacing:-1;}
	.st16{fill:none;stroke:#FF0000;stroke-width:1.07;stroke-linejoin:round;stroke-miterlimit:10;stroke-dasharray:4.27,4.27;}
	.st17{fill:none;stroke:#0000FF;stroke-width:1.07;stroke-linejoin:round;stroke-miterlimit:10;}
	.st18{fill:none;stroke:#FF0000;stroke-width:1.07;stroke-linejoin:round;stroke-miterlimit:10;}
	.st19{fill:none;stroke:#0000FF;stroke-width:1.07;stroke-linejoin:round;stroke-miterlimit:10;stroke-dasharray:4.27,4.27;}
	.st20{fill:none;stroke:#00FF00;stroke-width:1.07;stroke-linejoin:round;stroke-miterlimit:10;}
	.st21{clip-path:url(#SVGID_5_);}
	.st22{clip-path:url(#SVGID_6_);fill:#FFFFFF;}
	.st23{clip-path:url(#SVGID_6_);fill:none;stroke:#EBEBEB;stroke-width:1.07;stroke-linejoin:round;stroke-miterlimit:10;}
	
		.st24{opacity:0.298;clip-path:url(#SVGID_6_);fill:none;stroke:#BEBEBE;stroke-width:1.07;stroke-linejoin:round;stroke-miterlimit:10;}
	
		.st25{clip-path:url(#SVGID_6_);fill:none;stroke:#333333;stroke-width:1.07;stroke-linecap:round;stroke-linejoin:round;stroke-miterlimit:10;}
	.st26{clip-path:url(#SVGID_8_);fill:#FFFFFF;}
	.st27{clip-path:url(#SVGID_8_);fill:none;stroke:#EBEBEB;stroke-width:1.07;stroke-linejoin:round;stroke-miterlimit:10;}
	
		.st28{opacity:0.298;clip-path:url(#SVGID_8_);fill:none;stroke:#BEBEBE;stroke-width:1.07;stroke-linejoin:round;stroke-miterlimit:10;}
	.st29{clip-path:url(#SVGID_8_);fill:none;stroke:#000000;stroke-width:1.07;stroke-linejoin:round;stroke-miterlimit:10;}
	
		.st30{clip-path:url(#SVGID_8_);fill:none;stroke:#FF0000;stroke-width:1.07;stroke-linejoin:round;stroke-miterlimit:10;stroke-dasharray:4.27,4.27;}
	.st31{clip-path:url(#SVGID_8_);fill:none;stroke:#0000FF;stroke-width:1.07;stroke-linejoin:round;stroke-miterlimit:10;}
	.st32{clip-path:url(#SVGID_8_);fill:none;stroke:#FF0000;stroke-width:1.07;stroke-linejoin:round;stroke-miterlimit:10;}
	.st33{clip-path:url(#SVGID_8_);fill:none;stroke:#00FF00;stroke-width:1.07;stroke-linejoin:round;stroke-miterlimit:10;}
	
		.st34{clip-path:url(#SVGID_8_);fill:none;stroke:#333333;stroke-width:1.07;stroke-linecap:round;stroke-linejoin:round;stroke-miterlimit:10;}
	.st35{clip-path:url(#SVGID_10_);fill:#FFFFFF;}
	.st36{clip-path:url(#SVGID_10_);fill:none;stroke:#EBEBEB;stroke-width:1.07;stroke-linejoin:round;stroke-miterlimit:10;}
	
		.st37{opacity:0.298;clip-path:url(#SVGID_10_);fill:none;stroke:#BEBEBE;stroke-width:1.07;stroke-linejoin:round;stroke-miterlimit:10;}
	.st38{clip-path:url(#SVGID_10_);fill:none;stroke:#000000;stroke-width:1.07;stroke-linejoin:round;stroke-miterlimit:10;}
	
		.st39{clip-path:url(#SVGID_10_);fill:none;stroke:#FF0000;stroke-width:1.07;stroke-linejoin:round;stroke-miterlimit:10;stroke-dasharray:4.27,4.27;}
	.st40{clip-path:url(#SVGID_10_);fill:none;stroke:#0000FF;stroke-width:1.07;stroke-linejoin:round;stroke-miterlimit:10;}
	.st41{clip-path:url(#SVGID_10_);fill:none;stroke:#FF0000;stroke-width:1.07;stroke-linejoin:round;stroke-miterlimit:10;}
	.st42{clip-path:url(#SVGID_10_);fill:none;stroke:#00FF00;stroke-width:1.07;stroke-linejoin:round;stroke-miterlimit:10;}
	
		.st43{clip-path:url(#SVGID_10_);fill:none;stroke:#333333;stroke-width:1.07;stroke-linecap:round;stroke-linejoin:round;stroke-miterlimit:10;}
	.st44{clip-path:url(#SVGID_14_);fill:#D9D9D9;}
	
		.st45{clip-path:url(#SVGID_14_);fill:none;stroke:#333333;stroke-width:1.07;stroke-linecap:round;stroke-linejoin:round;stroke-miterlimit:10;}
	.st46{clip-path:url(#SVGID_14_);}
	.st47{fill:#1A1A1A;}
	.st48{clip-path:url(#SVGID_22_);fill:#D9D9D9;}
	
		.st49{clip-path:url(#SVGID_22_);fill:none;stroke:#333333;stroke-width:1.07;stroke-linecap:round;stroke-linejoin:round;stroke-miterlimit:10;}
	.st50{clip-path:url(#SVGID_22_);}
	.st51{clip-path:url(#SVGID_30_);fill:#D9D9D9;}
	
		.st52{clip-path:url(#SVGID_30_);fill:none;stroke:#333333;stroke-width:1.07;stroke-linecap:round;stroke-linejoin:round;stroke-miterlimit:10;}
	.st53{clip-path:url(#SVGID_30_);}
</style>
<polyline class="st0" points="645.5,28.24 645.5,0 125.12,0 "/>
<text transform="matrix(1 0 0 1 348.3197 17.3501)"><tspan x="0" y="0" class="st1 st2">SMCSMC Af</tspan><tspan x="51" y="0" class="st1 st2">r</tspan><tspan x="54.13" y="0" class="st1 st2">ican</tspan></text>
<g>
	<defs>
		<rect id="SVGID_1_" x="276.55" y="31.29" width="185.52" height="118.47"/>
	</defs>
	<clipPath id="SVGID_2_">
		<use xlink:href="#SVGID_1_"  style="overflow:visible;"/>
	</clipPath>
	<rect x="276.55" y="31.29" class="st3" width="185.52" height="118.47"/>
	<line class="st4" x1="276.55" y1="130.81" x2="462.07" y2="130.81"/>
	<line class="st4" x1="276.55" y1="90.52" x2="462.07" y2="90.52"/>
	<line class="st4" x1="276.55" y1="53.77" x2="462.07" y2="53.77"/>
	<line class="st4" x1="284.98" y1="149.76" x2="284.98" y2="31.29"/>
	<line class="st4" x1="369.31" y1="149.76" x2="369.31" y2="31.29"/>
	<line class="st4" x1="453.64" y1="149.76" x2="453.64" y2="31.29"/>
	<line class="st5" x1="284.98" y1="149.76" x2="284.98" y2="31.29"/>
	<line class="st5" x1="310.37" y1="149.76" x2="310.37" y2="31.29"/>
	<line class="st5" x1="325.22" y1="149.76" x2="325.22" y2="31.29"/>
	<line class="st5" x1="335.75" y1="149.76" x2="335.75" y2="31.29"/>
	<line class="st5" x1="343.93" y1="149.76" x2="343.93" y2="31.29"/>
	<line class="st5" x1="350.6" y1="149.76" x2="350.6" y2="31.29"/>
	<line class="st5" x1="356.25" y1="149.76" x2="356.25" y2="31.29"/>
	<line class="st5" x1="361.14" y1="149.76" x2="361.14" y2="31.29"/>
	<line class="st5" x1="365.45" y1="149.76" x2="365.45" y2="31.29"/>
	<line class="st5" x1="369.31" y1="149.76" x2="369.31" y2="31.29"/>
	<line class="st5" x1="369.31" y1="149.76" x2="369.31" y2="31.29"/>
	<line class="st5" x1="394.7" y1="149.76" x2="394.7" y2="31.29"/>
	<line class="st5" x1="409.55" y1="149.76" x2="409.55" y2="31.29"/>
	<line class="st5" x1="420.08" y1="149.76" x2="420.08" y2="31.29"/>
	<line class="st5" x1="428.25" y1="149.76" x2="428.25" y2="31.29"/>
	<line class="st5" x1="434.93" y1="149.76" x2="434.93" y2="31.29"/>
	<line class="st5" x1="440.58" y1="149.76" x2="440.58" y2="31.29"/>
	<line class="st5" x1="445.47" y1="149.76" x2="445.47" y2="31.29"/>
	<line class="st5" x1="449.78" y1="149.76" x2="449.78" y2="31.29"/>
	<line class="st5" x1="453.64" y1="149.76" x2="453.64" y2="31.29"/>
	<polyline class="st6" points="276.55,74.02 288.65,74.02 298.38,74.02 308.11,74.02 317.84,74.02 327.57,74.02 330.86,74.02 
		337.3,74.02 347.03,74.02 353.53,74.02 356.76,74.02 366.49,74.02 376.22,74.02 385.95,74.02 385.95,68.24 395.68,68.24 
		395.68,56.6 405.41,56.6 405.41,49.68 415.14,49.68 415.14,48.51 424.87,48.51 424.87,52.73 434.6,52.73 434.6,60.55 444.33,60.55 
		444.33,69.14 	"/>
	<polyline class="st6" points="288.65,71.98 298.38,71.98 298.38,87.99 308.11,87.99 308.11,101.77 317.84,101.77 317.84,112.47 
		327.57,112.47 327.57,119.16 330.86,119.16 330.86,120.37 337.3,120.37 337.3,121.04 347.03,121.04 347.03,117.68 353.53,117.68 
		353.53,112.61 356.76,112.61 356.76,109.34 366.49,109.34 366.49,97.03 376.22,97.03 376.22,82.54 385.95,82.54 385.95,68.24 
		395.68,68.24 395.68,56.6 405.41,56.6 405.41,49.68 415.14,49.68 415.14,48.51 424.87,48.51 424.87,52.73 434.6,52.73 434.6,60.55 
		444.33,60.55 444.33,69.14 	"/>
	<line class="st7" x1="353.53" y1="149.76" x2="353.53" y2="31.29"/>
	<line class="st7" x1="347.42" y1="149.76" x2="347.42" y2="31.29"/>
	<polyline class="st8" points="290.9,83.81 299.06,83.81 299.06,98.05 307.22,98.05 307.22,107.65 315.38,107.65 315.38,114.28 
		323.54,114.28 323.54,129.96 331.7,129.96 331.7,119.26 339.86,119.26 339.86,105.11 348.02,105.11 348.02,100.87 356.18,100.87 
		356.18,92.95 364.34,92.95 364.34,86.81 372.51,86.81 372.51,79.79 380.67,79.79 380.67,78.43 388.83,78.43 388.83,72.76 
		396.99,72.76 396.99,58.65 405.15,58.65 405.15,48.41 413.31,48.41 413.31,62.83 421.47,62.83 421.47,53.96 429.63,53.96 
		429.63,56.66 437.79,56.66 437.79,61.77 445.95,61.77 445.95,69.47 	"/>
	<polyline class="st9" points="276.55,105.32 290.9,105.32 290.9,60.37 299.06,60.37 299.06,76.65 307.22,76.65 307.22,78.07 
		315.38,78.07 315.38,79.87 323.54,79.87 323.54,74.38 331.7,74.38 331.7,83.16 339.86,83.16 339.86,81.53 348.02,81.53 
		348.02,74.28 356.18,74.28 356.18,77.54 364.34,77.54 364.34,80.57 372.51,80.57 372.51,80.37 380.67,80.37 380.67,81.63 
		388.83,81.63 388.83,77.64 396.99,77.64 396.99,65.45 405.15,65.45 405.15,59.56 413.31,59.56 	"/>
	<polyline class="st10" points="290.9,63.48 299.06,63.48 299.06,46.78 307.22,46.78 307.22,78.41 315.38,78.41 315.38,72.42 
		323.54,72.42 323.54,65.34 331.7,65.34 331.7,73.03 339.86,73.03 339.86,66.2 348.02,66.2 348.02,64.91 356.18,64.91 356.18,61.34 
		364.34,61.34 364.34,59.76 372.51,59.76 372.51,61.09 380.67,61.09 380.67,65.48 388.83,65.48 388.83,57.74 396.99,57.74 
		396.99,52.12 405.15,52.12 405.15,47.51 413.31,47.51 413.31,46.28 421.47,46.28 421.47,49.89 429.63,49.89 429.63,56.94 
		437.79,56.94 437.79,62.73 445.95,62.73 445.95,69.01 	"/>
	<rect x="276.55" y="31.29" class="st11" width="185.52" height="118.47"/>
</g>
<line class="st12" x1="370.1" y1="152.73" x2="370.1" y2="149.99"/>
<text transform="matrix(1 0 0 1 362.6021 161.378)" class="st13 st1 st2">100</text>
<text transform="matrix(1 0 0 1 284.2125 173.9971)"><tspan x="0" y="0" class="st1 st14">Thousands of </tspan><tspan x="69.71" y="0" class="st1 st14 st15">Y</tspan><tspan x="75.52" y="0" class="st1 st14">ears be</tspan><tspan x="112.21" y="0" class="st1 st14">f</tspan><tspan x="114.95" y="0" class="st1 st14">ore Present</tspan></text>
<rect x="136.08" y="5.48" class="st0" width="17.28" height="17.28"/>
<line class="st16" x1="137.81" y1="14.12" x2="151.63" y2="14.12"/>
<line class="st16" x1="137.81" y1="14.12" x2="151.63" y2="14.12"/>
<line class="st16" x1="137.81" y1="14.12" x2="151.63" y2="14.12"/>
<rect x="221.04" y="5.48" class="st0" width="17.28" height="17.28"/>
<line class="st17" x1="222.77" y1="14.12" x2="236.59" y2="14.12"/>
<line class="st17" x1="222.77" y1="14.12" x2="236.59" y2="14.12"/>
<line class="st17" x1="222.77" y1="14.12" x2="236.59" y2="14.12"/>
<rect x="325.56" y="5.48" class="st0" width="17.28" height="17.28"/>
<line class="st18" x1="327.29" y1="14.12" x2="341.11" y2="14.12"/>
<line class="st18" x1="327.29" y1="14.12" x2="341.11" y2="14.12"/>
<line class="st18" x1="327.29" y1="14.12" x2="341.11" y2="14.12"/>
<rect x="422.75" y="5.48" class="st0" width="17.28" height="17.28"/>
<line class="st19" x1="424.47" y1="14.12" x2="438.3" y2="14.12"/>
<line class="st19" x1="424.47" y1="14.12" x2="438.3" y2="14.12"/>
<line class="st19" x1="424.47" y1="14.12" x2="438.3" y2="14.12"/>
<rect x="515.05" y="5.48" class="st0" width="17.28" height="17.28"/>
<line class="st20" x1="516.77" y1="14.12" x2="530.6" y2="14.12"/>
<line class="st20" x1="516.77" y1="14.12" x2="530.6" y2="14.12"/>
<line class="st20" x1="516.77" y1="14.12" x2="530.6" y2="14.12"/>
<text transform="matrix(1 0 0 1 158.8397 17.3501)"><tspan x="0" y="0" class="st1 st2">MSMC Af</tspan><tspan x="38.5" y="0" class="st1 st2">r</tspan><tspan x="41.62" y="0" class="st1 st2">ican</tspan></text>
<text transform="matrix(1 0 0 1 243.8001 17.3501)"><tspan x="0" y="0" class="st1 st2">SMCSMC Eu</tspan><tspan x="53.51" y="0" class="st1 st2">r</tspan><tspan x="56.42" y="0" class="st1 st2">asian</tspan></text>
<text transform="matrix(1 0 0 1 445.5003 17.3501)"><tspan x="0" y="0" class="st1 st2">MSMC Eu</tspan><tspan x="41" y="0" class="st1 st2">r</tspan><tspan x="43.91" y="0" class="st1 st2">asian</tspan></text>
<text transform="matrix(1 0 0 1 537.8099 17.3501)" class="st1 st2">SMCSMC Single Genome</text>
<g>
	<defs>
		<path id="SVGID_3_" d="M40.1-80.44"/>
	</defs>
	<defs>
		<path id="SVGID_4_" d="M374.93,285.93"/>
	</defs>
	<clipPath id="SVGID_5_">
		<use xlink:href="#SVGID_3_"  style="overflow:visible;"/>
	</clipPath>
	<clipPath id="SVGID_6_" class="st21">
		<use xlink:href="#SVGID_4_"  style="overflow:visible;"/>
	</clipPath>
	<path class="st22" d="M40.1-80.44"/>
	<line class="st22" x1="374.93" y1="285.93" x2="374.93" y2="-80.44"/>
	<path class="st23" d="M374.93,227.32"/>
	<path class="st23" d="M374.93,102.74"/>
	<path class="st23" d="M374.93-10.93"/>
	<path class="st23" d="M207.51-80.44"/>
	<path class="st23" d="M359.71-80.44"/>
	<path class="st24" d="M101.13-80.44"/>
	<path class="st24" d="M127.93-80.44"/>
	<path class="st24" d="M146.95-80.44"/>
	<path class="st24" d="M161.7-80.44"/>
	<path class="st24" d="M173.75-80.44"/>
	<path class="st24" d="M183.94-80.44"/>
	<path class="st24" d="M192.77-80.44"/>
	<path class="st24" d="M200.55-80.44"/>
	<path class="st24" d="M207.51-80.44"/>
	<path class="st24" d="M207.51-80.44"/>
	<path class="st24" d="M253.33-80.44"/>
	<path class="st24" d="M280.13-80.44"/>
	<path class="st24" d="M299.15-80.44"/>
	<path class="st24" d="M313.9-80.44"/>
	<path class="st24" d="M325.95-80.44"/>
	<path class="st24" d="M336.14-80.44"/>
	<path class="st24" d="M344.96-80.44"/>
	<path class="st24" d="M352.75-80.44"/>
	<path class="st24" d="M359.71-80.44"/>
	<path class="st25" d="M40.1-80.44"/>
	<line class="st25" x1="374.93" y1="285.93" x2="374.93" y2="-80.44"/>
</g>
<g>
	<defs>
		<rect id="SVGID_7_" x="34.93" y="33.52" width="185.52" height="118.47"/>
	</defs>
	<clipPath id="SVGID_8_">
		<use xlink:href="#SVGID_7_"  style="overflow:visible;"/>
	</clipPath>
	<rect x="34.93" y="33.52" class="st26" width="185.52" height="118.47"/>
	<line class="st27" x1="34.93" y1="133.04" x2="220.45" y2="133.04"/>
	<line class="st27" x1="34.93" y1="92.75" x2="220.45" y2="92.75"/>
	<line class="st27" x1="34.93" y1="56" x2="220.45" y2="56"/>
	<line class="st27" x1="43.36" y1="151.99" x2="43.36" y2="33.52"/>
	<line class="st27" x1="127.69" y1="151.99" x2="127.69" y2="33.52"/>
	<line class="st27" x1="212.02" y1="151.99" x2="212.02" y2="33.52"/>
	<line class="st28" x1="43.36" y1="151.99" x2="43.36" y2="33.52"/>
	<line class="st28" x1="68.75" y1="151.99" x2="68.75" y2="33.52"/>
	<line class="st28" x1="83.6" y1="151.99" x2="83.6" y2="33.52"/>
	<line class="st28" x1="94.13" y1="151.99" x2="94.13" y2="33.52"/>
	<line class="st28" x1="102.31" y1="151.99" x2="102.31" y2="33.52"/>
	<line class="st28" x1="108.98" y1="151.99" x2="108.98" y2="33.52"/>
	<line class="st28" x1="114.63" y1="151.99" x2="114.63" y2="33.52"/>
	<line class="st28" x1="119.52" y1="151.99" x2="119.52" y2="33.52"/>
	<line class="st28" x1="123.83" y1="151.99" x2="123.83" y2="33.52"/>
	<line class="st28" x1="127.69" y1="151.99" x2="127.69" y2="33.52"/>
	<line class="st28" x1="127.69" y1="151.99" x2="127.69" y2="33.52"/>
	<line class="st28" x1="153.08" y1="151.99" x2="153.08" y2="33.52"/>
	<line class="st28" x1="167.93" y1="151.99" x2="167.93" y2="33.52"/>
	<line class="st28" x1="178.46" y1="151.99" x2="178.46" y2="33.52"/>
	<line class="st28" x1="186.63" y1="151.99" x2="186.63" y2="33.52"/>
	<line class="st28" x1="193.31" y1="151.99" x2="193.31" y2="33.52"/>
	<line class="st28" x1="198.96" y1="151.99" x2="198.96" y2="33.52"/>
	<line class="st28" x1="203.85" y1="151.99" x2="203.85" y2="33.52"/>
	<line class="st28" x1="208.16" y1="151.99" x2="208.16" y2="33.52"/>
	<line class="st28" x1="212.02" y1="151.99" x2="212.02" y2="33.52"/>
	<polyline class="st29" points="34.93,76.25 47.03,76.25 56.76,76.25 66.49,76.25 76.22,76.25 85.95,76.25 89.24,76.25 95.68,76.25 
		105.41,76.25 111.91,76.25 115.14,76.25 124.87,76.25 134.6,76.25 144.33,76.25 144.33,70.47 154.06,70.47 154.06,58.83 
		163.79,58.83 163.79,51.91 173.52,51.91 173.52,50.74 183.25,50.74 183.25,54.96 192.98,54.96 192.98,62.78 202.71,62.78 
		202.71,71.37 	"/>
	<polyline class="st29" points="47.03,74.21 56.76,74.21 56.76,90.22 66.49,90.22 66.49,104 76.22,104 76.22,114.7 85.95,114.7 
		85.95,121.39 89.24,121.39 89.24,122.6 95.68,122.6 95.68,123.26 105.41,123.26 105.41,119.91 111.91,119.91 111.91,114.84 
		115.14,114.84 115.14,111.57 124.87,111.57 124.87,99.26 134.6,99.26 134.6,84.77 144.33,84.77 144.33,70.47 154.06,70.47 
		154.06,58.83 163.79,58.83 163.79,51.91 173.52,51.91 173.52,50.74 183.25,50.74 183.25,54.96 192.98,54.96 192.98,62.78 
		202.71,62.78 202.71,71.37 	"/>
	<line class="st30" x1="111.91" y1="151.99" x2="111.91" y2="33.52"/>
	<line class="st30" x1="105.8" y1="151.99" x2="105.8" y2="33.52"/>
	<polyline class="st31" points="49.28,50.64 57.44,50.64 57.44,90.42 65.6,90.42 65.6,104.93 73.76,104.93 73.76,119.33 
		81.92,119.33 81.92,127.31 90.08,127.31 90.08,123.63 98.24,123.63 98.24,116.96 106.4,116.96 106.4,118.19 114.56,118.19 
		114.56,113.51 122.72,113.51 122.72,103.46 130.89,103.46 130.89,99.14 139.05,99.14 139.05,94.58 147.21,94.58 147.21,77.92 
		155.37,77.92 155.37,65.73 163.53,65.73 163.53,50.22 171.69,50.22 171.69,62.36 179.85,62.36 179.85,57.41 188.01,57.41 
		188.01,58.34 196.17,58.34 196.17,63.39 204.33,63.39 204.33,71.24 	"/>
	<line class="st32" x1="34.93" y1="60.86" x2="49.28" y2="60.86"/>
	<polyline class="st32" points="57.44,76.31 65.6,76.31 65.6,72.68 73.76,72.68 73.76,80.22 81.92,80.22 81.92,82.68 90.08,82.68 
		90.08,77.7 98.24,77.7 98.24,75.93 106.4,75.93 106.4,80.32 114.56,80.32 114.56,76.71 122.72,76.71 122.72,79.5 130.89,79.5 
		130.89,75.75 139.05,75.75 139.05,84.36 147.21,84.36 147.21,77.27 155.37,77.27 155.37,71.91 163.53,71.91 163.53,66.05 
		171.69,66.05 	"/>
	<polyline class="st33" points="57.44,71.08 65.6,71.08 65.6,66.11 73.76,66.11 73.76,80.58 81.92,80.58 81.92,72.31 90.08,72.31 
		90.08,71.38 98.24,71.38 98.24,69.63 106.4,69.63 106.4,68.84 114.56,68.84 114.56,64.67 122.72,64.67 122.72,63.48 130.89,63.48 
		130.89,63.6 139.05,63.6 139.05,66.75 147.21,66.75 147.21,59.93 155.37,59.93 155.37,53.04 163.53,53.04 163.53,49.61 
		171.69,49.61 171.69,47.86 179.85,47.86 179.85,51.94 188.01,51.94 188.01,58.86 196.17,58.86 196.17,64.59 204.33,64.59 
		204.33,70.89 	"/>
	<rect x="34.93" y="33.52" class="st34" width="185.52" height="118.47"/>
</g>
<g>
	<defs>
		<rect id="SVGID_9_" x="523.35" y="28.76" width="185.52" height="118.47"/>
	</defs>
	<clipPath id="SVGID_10_">
		<use xlink:href="#SVGID_9_"  style="overflow:visible;"/>
	</clipPath>
	<rect x="523.35" y="28.76" class="st35" width="185.52" height="118.47"/>
	<line class="st36" x1="523.35" y1="128.28" x2="708.87" y2="128.28"/>
	<line class="st36" x1="523.35" y1="87.99" x2="708.87" y2="87.99"/>
	<line class="st36" x1="523.35" y1="51.24" x2="708.87" y2="51.24"/>
	<line class="st36" x1="531.78" y1="147.23" x2="531.78" y2="28.76"/>
	<line class="st36" x1="616.11" y1="147.23" x2="616.11" y2="28.76"/>
	<line class="st36" x1="700.44" y1="147.23" x2="700.44" y2="28.76"/>
	<line class="st37" x1="531.78" y1="147.23" x2="531.78" y2="28.76"/>
	<line class="st37" x1="557.17" y1="147.23" x2="557.17" y2="28.76"/>
	<line class="st37" x1="572.02" y1="147.23" x2="572.02" y2="28.76"/>
	<line class="st37" x1="582.55" y1="147.23" x2="582.55" y2="28.76"/>
	<line class="st37" x1="590.73" y1="147.23" x2="590.73" y2="28.76"/>
	<line class="st37" x1="597.4" y1="147.23" x2="597.4" y2="28.76"/>
	<line class="st37" x1="603.05" y1="147.23" x2="603.05" y2="28.76"/>
	<line class="st37" x1="607.94" y1="147.23" x2="607.94" y2="28.76"/>
	<line class="st37" x1="612.25" y1="147.23" x2="612.25" y2="28.76"/>
	<line class="st37" x1="616.11" y1="147.23" x2="616.11" y2="28.76"/>
	<line class="st37" x1="616.11" y1="147.23" x2="616.11" y2="28.76"/>
	<line class="st37" x1="641.5" y1="147.23" x2="641.5" y2="28.76"/>
	<line class="st37" x1="656.35" y1="147.23" x2="656.35" y2="28.76"/>
	<line class="st37" x1="666.88" y1="147.23" x2="666.88" y2="28.76"/>
	<line class="st37" x1="675.05" y1="147.23" x2="675.05" y2="28.76"/>
	<line class="st37" x1="681.73" y1="147.23" x2="681.73" y2="28.76"/>
	<line class="st37" x1="687.38" y1="147.23" x2="687.38" y2="28.76"/>
	<line class="st37" x1="692.27" y1="147.23" x2="692.27" y2="28.76"/>
	<line class="st37" x1="696.58" y1="147.23" x2="696.58" y2="28.76"/>
	<line class="st37" x1="700.44" y1="147.23" x2="700.44" y2="28.76"/>
	<polyline class="st38" points="523.35,71.49 535.45,71.49 545.18,71.49 554.91,71.49 564.64,71.49 574.37,71.49 577.66,71.49 
		584.1,71.49 593.83,71.49 600.33,71.49 603.56,71.49 613.29,71.49 623.02,71.49 632.75,71.49 632.75,65.71 642.48,65.71 
		642.48,54.07 652.21,54.07 652.21,47.15 661.94,47.15 661.94,45.98 671.67,45.98 671.67,50.2 681.4,50.2 681.4,58.02 691.13,58.02 
		691.13,66.61 	"/>
	<polyline class="st38" points="535.45,69.45 545.18,69.45 545.18,85.46 554.91,85.46 554.91,99.24 564.64,99.24 564.64,109.94 
		574.37,109.94 574.37,116.63 577.66,116.63 577.66,117.84 584.1,117.84 584.1,118.51 593.83,118.51 593.83,115.15 600.33,115.15 
		600.33,110.08 603.56,110.08 603.56,106.81 613.29,106.81 613.29,94.5 623.02,94.5 623.02,80.01 632.75,80.01 632.75,65.71 
		642.48,65.71 642.48,54.07 652.21,54.07 652.21,47.15 661.94,47.15 661.94,45.98 671.67,45.98 671.67,50.2 681.4,50.2 681.4,58.02 
		691.13,58.02 691.13,66.61 	"/>
	<line class="st39" x1="600.33" y1="147.23" x2="600.33" y2="28.76"/>
	<line class="st39" x1="594.22" y1="147.23" x2="594.22" y2="28.76"/>
	<polyline class="st40" points="537.7,45.88 545.86,45.88 545.86,85.66 554.02,85.66 554.02,100.17 562.18,100.17 562.18,114.57 
		570.34,114.57 570.34,122.55 578.5,122.55 578.5,118.87 586.66,118.87 586.66,112.2 594.82,112.2 594.82,113.43 602.98,113.43 
		602.98,108.75 611.14,108.75 611.14,98.7 619.31,98.7 619.31,94.38 627.47,94.38 627.47,89.82 635.63,89.82 635.63,73.16 
		643.79,73.16 643.79,60.97 651.95,60.97 651.95,45.46 660.11,45.46 660.11,57.6 668.27,57.6 668.27,52.65 676.43,52.65 
		676.43,53.58 684.59,53.58 684.59,58.63 692.75,58.63 692.75,66.48 	"/>
	<line class="st41" x1="523.35" y1="56.1" x2="537.7" y2="56.1"/>
	<polyline class="st41" points="545.86,71.55 554.02,71.55 554.02,67.92 562.18,67.92 562.18,75.47 570.34,75.47 570.34,77.92 
		578.5,77.92 578.5,72.94 586.66,72.94 586.66,71.17 594.82,71.17 594.82,75.56 602.98,75.56 602.98,71.95 611.14,71.95 
		611.14,74.74 619.31,74.74 619.31,70.99 627.47,70.99 627.47,79.6 635.63,79.6 635.63,72.51 643.79,72.51 643.79,67.15 
		651.95,67.15 651.95,61.29 	"/>
	<polyline class="st42" points="523.35,36.69 537.7,36.69 537.7,55.2 545.86,55.2 545.86,40.18 554.02,40.18 554.02,67.22 
		562.18,67.22 562.18,68.66 570.34,68.66 570.34,66.78 578.5,66.78 578.5,68.26 586.66,68.26 586.66,68.56 594.82,68.56 
		594.82,72.85 602.98,72.85 602.98,71.68 611.14,71.68 611.14,71.56 619.31,71.56 619.31,72.61 627.47,72.61 627.47,71.78 
		635.63,71.78 635.63,63.94 643.79,63.94 643.79,54.35 651.95,54.35 651.95,47.6 660.11,47.6 660.11,45.76 668.27,45.76 
		668.27,47.51 676.43,47.51 676.43,54.25 684.59,54.25 684.59,59.89 692.75,59.89 692.75,65.86 	"/>
	<rect x="523.35" y="28.76" class="st43" width="185.52" height="118.47"/>
</g>
<g>
	<defs>
		<rect id="SVGID_11_" x="220.45" y="33.52" width="17.21" height="118.47"/>
	</defs>
	<clipPath id="SVGID_12_">
		<use xlink:href="#SVGID_11_"  style="overflow:visible;"/>
	</clipPath>
</g>
<g>
	<defs>
		<rect id="SVGID_13_" x="220.45" y="33.52" width="17.21" height="118.47"/>
	</defs>
	<clipPath id="SVGID_14_">
		<use xlink:href="#SVGID_13_"  style="overflow:visible;"/>
	</clipPath>
	<rect x="220.45" y="33.52" class="st44" width="17.21" height="118.47"/>
	<rect x="220.45" y="33.52" class="st45" width="17.21" height="118.47"/>
	<g class="st46">
		<text transform="matrix(-6.123234e-17 1 -1 -6.123234e-17 225.8217 70.8171)"><tspan x="0" y="0" class="st47 st1 st2">Back</tspan><tspan x="20.01" y="0" class="st47 st1 st2">w</tspan><tspan x="26.37" y="0" class="st47 st1 st2">ards</tspan></text>
	</g>
</g>
<g>
	<defs>
		<rect id="SVGID_15_" x="220.45" y="33.52" width="17.21" height="118.47"/>
	</defs>
	<clipPath id="SVGID_16_">
		<use xlink:href="#SVGID_15_"  style="overflow:visible;"/>
	</clipPath>
</g>
<g>
	<defs>
		<rect id="SVGID_17_" x="220.45" y="33.52" width="17.21" height="118.47"/>
	</defs>
	<clipPath id="SVGID_18_">
		<use xlink:href="#SVGID_17_"  style="overflow:visible;"/>
	</clipPath>
</g>
<g>
	<defs>
		<rect id="SVGID_19_" x="462.07" y="31.29" width="17.21" height="118.47"/>
	</defs>
	<clipPath id="SVGID_20_">
		<use xlink:href="#SVGID_19_"  style="overflow:visible;"/>
	</clipPath>
</g>
<g>
	<defs>
		<rect id="SVGID_21_" x="462.07" y="31.29" width="17.21" height="118.47"/>
	</defs>
	<clipPath id="SVGID_22_">
		<use xlink:href="#SVGID_21_"  style="overflow:visible;"/>
	</clipPath>
	<rect x="462.07" y="31.29" class="st48" width="17.21" height="118.47"/>
	<rect x="462.07" y="31.29" class="st49" width="17.21" height="118.47"/>
	<g class="st50">
		<text transform="matrix(-6.123234e-17 1 -1 -6.123234e-17 467.4369 66.0221)" class="st47 st1 st2">Bidirectional</text>
	</g>
</g>
<g>
	<defs>
		<rect id="SVGID_23_" x="462.07" y="31.29" width="17.21" height="118.47"/>
	</defs>
	<clipPath id="SVGID_24_">
		<use xlink:href="#SVGID_23_"  style="overflow:visible;"/>
	</clipPath>
</g>
<g>
	<defs>
		<rect id="SVGID_25_" x="462.07" y="31.29" width="17.21" height="118.47"/>
	</defs>
	<clipPath id="SVGID_26_">
		<use xlink:href="#SVGID_25_"  style="overflow:visible;"/>
	</clipPath>
</g>
<g>
	<defs>
		<rect id="SVGID_27_" x="708.87" y="28.76" width="17.21" height="118.47"/>
	</defs>
	<clipPath id="SVGID_28_">
		<use xlink:href="#SVGID_27_"  style="overflow:visible;"/>
	</clipPath>
</g>
<g>
	<defs>
		<rect id="SVGID_29_" x="708.87" y="28.76" width="17.21" height="118.47"/>
	</defs>
	<clipPath id="SVGID_30_">
		<use xlink:href="#SVGID_29_"  style="overflow:visible;"/>
	</clipPath>
	<rect x="708.87" y="28.76" class="st51" width="17.21" height="118.47"/>
	<rect x="708.87" y="28.76" class="st52" width="17.21" height="118.47"/>
	<g class="st53">
		<text transform="matrix(-6.123234e-17 1 -1 -6.123234e-17 714.2421 69.4423)"><tspan x="0" y="0" class="st47 st1 st2">F</tspan><tspan x="5.24" y="0" class="st47 st1 st2">or</tspan><tspan x="13.24" y="0" class="st47 st1 st2">w</tspan><tspan x="19.6" y="0" class="st47 st1 st2">ards</tspan></text>
	</g>
</g>
<g>
	<defs>
		<rect id="SVGID_31_" x="708.87" y="28.76" width="17.21" height="118.47"/>
	</defs>
	<clipPath id="SVGID_32_">
		<use xlink:href="#SVGID_31_"  style="overflow:visible;"/>
	</clipPath>
</g>
<g>
	<defs>
		<rect id="SVGID_33_" x="708.87" y="28.76" width="17.21" height="118.47"/>
	</defs>
	<clipPath id="SVGID_34_">
		<use xlink:href="#SVGID_33_"  style="overflow:visible;"/>
	</clipPath>
</g>
<line class="st12" x1="531.78" y1="149.97" x2="531.78" y2="147.23"/>
<line class="st12" x1="616.11" y1="149.97" x2="616.11" y2="147.23"/>
<line class="st12" x1="700.44" y1="149.97" x2="700.44" y2="147.23"/>
<text transform="matrix(1 0 0 1 526.782 158.6231)" class="st13 st1 st2">10</text>
<text transform="matrix(1 0 0 1 608.6121 158.6231)" class="st13 st1 st2">100</text>
<text transform="matrix(1 0 0 1 689.1824 158.6231)" class="st13 st1 st2">1,000</text>
<text transform="matrix(1 0 0 1 7.482 136.2677)" class="st13 st1 st2">3,000</text>
<text transform="matrix(1 0 0 1 2.482 95.9777)" class="st13 st1 st2">10,000</text>
<text transform="matrix(1 0 0 1 2.482 59.2277)" class="st13 st1 st2">30,000</text>
<line class="st12" x1="32.19" y1="133.04" x2="34.93" y2="133.04"/>
<line class="st12" x1="32.19" y1="92.75" x2="34.93" y2="92.75"/>
<line class="st12" x1="32.19" y1="56" x2="34.93" y2="56"/>
<text transform="matrix(1 0 0 1 249.0971 134.0423)" class="st13 st1 st2">3,000</text>
<text transform="matrix(1 0 0 1 244.0971 93.7523)" class="st13 st1 st2">10,000</text>
<text transform="matrix(1 0 0 1 244.0971 57.0023)" class="st13 st1 st2">30,000</text>
<line class="st12" x1="273.81" y1="130.81" x2="276.55" y2="130.81"/>
<line class="st12" x1="273.81" y1="90.52" x2="276.55" y2="90.52"/>
<line class="st12" x1="273.81" y1="53.77" x2="276.55" y2="53.77"/>
<text transform="matrix(1 0 0 1 495.9021 131.5127)" class="st13 st1 st2">3,000</text>
<text transform="matrix(1 0 0 1 490.9021 91.2227)" class="st13 st1 st2">10,000</text>
<text transform="matrix(1 0 0 1 490.9021 54.4727)" class="st13 st1 st2">30,000</text>
<line class="st12" x1="520.61" y1="128.28" x2="523.35" y2="128.28"/>
<line class="st12" x1="520.61" y1="87.99" x2="523.35" y2="87.99"/>
<line class="st12" x1="520.61" y1="51.24" x2="523.35" y2="51.24"/>
<text transform="matrix(1 0 0 1 530.2224 171.2422)"><tspan x="0" y="0" class="st1 st14">Thousands of </tspan><tspan x="69.71" y="0" class="st1 st14 st15">Y</tspan><tspan x="75.52" y="0" class="st1 st14">ears be</tspan><tspan x="112.21" y="0" class="st1 st14">f</tspan><tspan x="114.95" y="0" class="st1 st14">ore Present</tspan></text>
<line class="st12" x1="285.77" y1="152.73" x2="285.77" y2="149.99"/>
<line class="st12" x1="454.43" y1="152.73" x2="454.43" y2="149.99"/>
<text transform="matrix(1 0 0 1 280.7721 161.378)" class="st13 st1 st2">10</text>
<text transform="matrix(1 0 0 1 443.1725 161.378)" class="st13 st1 st2">1,000</text>
<line class="st12" x1="43.1" y1="154.47" x2="43.1" y2="151.73"/>
<line class="st12" x1="127.43" y1="154.47" x2="127.43" y2="151.73"/>
<line class="st12" x1="211.76" y1="154.47" x2="211.76" y2="151.73"/>
<text transform="matrix(1 0 0 1 38.1022 163.118)" class="st13 st1 st2">10</text>
<text transform="matrix(1 0 0 1 119.9323 163.118)" class="st13 st1 st2">100</text>
<text transform="matrix(1 0 0 1 200.5026 163.118)" class="st13 st1 st2">1,000</text>
<text transform="matrix(1 0 0 1 41.5427 175.7371)"><tspan x="0" y="0" class="st1 st14">Thousands of </tspan><tspan x="69.71" y="0" class="st1 st14 st15">Y</tspan><tspan x="75.52" y="0" class="st1 st14">ears be</tspan><tspan x="112.21" y="0" class="st1 st14">f</tspan><tspan x="114.95" y="0" class="st1 st14">ore Present</tspan></text>
</svg>
